<svg xmlns="http://www.w3.org/2000/svg" viewBox="0 0 1000 1000" xml:space="preserve"><path d="M990 900.9h-29.7c-86.1-172.6-259.4-291.8-460.3-297-200.9 5.1-374.2 124.4-460.3 297H10c73.5-168.1 228.5-291.2 415.8-311.8-96-41-163.6-132.6-163.3-237.6-.3-140.7 109.8-252.4 252.3-252.4 129.2 0 239.4 111.7 237.6 252.4 1.8 106.9-68.1 199.9-163.3 237.6C767.8 614.9 918 736.3 990 900.9zM722.7 351.5c0-123-96.4-222.7-222.7-222.7-111.5 0-207.9 99.7-207.9 222.7 0 123 96.4 222.7 207.9 222.7 126.3 0 222.7-99.7 222.7-222.7z"/></svg>